<?xml version="1.0" standalone="no"?>
<!DOCTYPE svg PUBLIC "-//W3C//DTD SVG 20010904//EN"
 "http://www.w3.org/TR/2001/REC-SVG-20010904/DTD/svg10.dtd">
<svg version="1.0" xmlns="http://www.w3.org/2000/svg"
 width="312.000000pt" height="256.000000pt" viewBox="0 0 312.000000 256.000000"
 preserveAspectRatio="xMidYMid meet">

<g transform="translate(0.000000,256.000000) scale(0.100000,-0.100000)"
fill="#000000" stroke="none">
<path d="M730 2337 c-21 -11 -25 -21 -28 -64 -7 -126 99 -214 221 -184 106 26
133 25 182 -3 87 -51 233 -171 228 -188 -2 -4 7 -10 18 -13 17 -6 18 -9 7 -23
-10 -12 -10 -14 0 -8 9 5 12 -4 12 -33 0 -24 -5 -41 -11 -41 -8 0 -7 -6 2 -17
7 -10 9 -15 5 -11 -5 4 -29 -10 -52 -32 -24 -22 -48 -40 -54 -40 -14 0 12 -48
47 -85 15 -16 28 -33 28 -36 0 -4 11 -20 25 -36 14 -15 26 -32 27 -36 6 -40 8
25 8 276 0 161 -4 298 -8 305 -5 7 -13 9 -19 6 -6 -4 -8 -2 -5 3 4 6 -25 43
-64 82 -120 118 -302 191 -476 191 -37 0 -79 -6 -93 -13z"/>
<path d="M1950 2274 c-108 -29 -212 -106 -317 -238 -63 -77 -62 -81 25 -92 75
-9 157 2 220 31 67 31 106 63 154 128 35 47 38 56 38 116 l0 66 -33 2 c-17 1
-57 -5 -87 -13z"/>
<path d="M170 1901 c-48 -90 -58 -339 -20 -506 39 -173 96 -299 219 -482 88
-130 249 -300 349 -366 31 -21 65 -46 75 -54 9 -9 17 -13 17 -8 0 4 7 2 15 -5
8 -7 15 -9 15 -6 0 4 7 0 16 -9 17 -17 47 -17 42 0 -2 6 -7 9 -12 7 -5 -2 -3
4 4 13 18 22 18 71 0 67 -11 -3 -11 0 0 13 18 22 18 71 0 67 -11 -2 -10 0 1
14 8 9 13 25 11 36 -2 10 1 18 5 18 5 0 56 -31 114 -69 116 -77 249 -150 324
-179 l50 -20 0 393 0 393 -42 -39 c-30 -27 -52 -39 -73 -39 -16 0 -31 1 -33 3
-2 1 -20 -13 -41 -30 -20 -18 -41 -34 -46 -34 -6 -1 -16 -2 -22 -3 -7 -2 -28
4 -47 11 -19 7 -48 11 -66 7 -40 -7 -77 11 -124 60 -19 20 -44 36 -55 36 -47
1 -105 42 -201 141 -120 123 -142 165 -155 289 -14 137 -75 236 -173 281 -57
25 -133 25 -147 0z"/>
</g>
</svg>
